<svg xmlns="http://www.w3.org/2000/svg" xmlns:xlink="http://www.w3.org/1999/xlink" viewBox="0 0 258.19 160.15"><defs><style>.cls-1{isolation:isolate;}.cls-2{opacity:0.16;}.cls-3{fill:#ced1d8;}.cls-4{fill:#fff;}.cls-5{fill:#566cd3;}.cls-10,.cls-6{fill:#b9b8f1;}.cls-7{fill:#ff65a7;}.cls-8{fill:#4568af;}.cls-9{fill:url(#linear-gradient);}.cls-10{fill-rule:evenodd;}.cls-11{fill:#37384f;}.cls-12{fill:#f99ab6;}.cls-13{fill:#f7b75d;}.cls-14{fill:#ffd7cf;}.cls-15{mix-blend-mode:multiply;}.cls-16{fill:#121f55;}.cls-17{fill:#fffeff;}.cls-18{fill:#2143af;}.cls-19{fill:url(#linear-gradient-2);}.cls-20{fill:#e5e9ff;}.cls-21{fill:#2747b3;}.cls-22{fill:#d1ddff;}.cls-23{fill:#b8b9f1;}.cls-24{fill:#f7a93e;}</style><linearGradient id="linear-gradient" x1="138.61" y1="135.65" x2="186.65" y2="135.65" gradientUnits="userSpaceOnUse"><stop offset="0" stop-color="#fec55e"/><stop offset="1" stop-color="#ffa000"/></linearGradient><linearGradient id="linear-gradient-2" x1="106.35" y1="20.84" x2="129.31" y2="20.84" xlink:href="#linear-gradient"/></defs><title>Let's catch up</title><g class="cls-1"><g id="Layer_2" data-name="Layer 2"><g id="Layer_1-2" data-name="Layer 1"><g class="cls-2"><path class="cls-3" d="M258.19,160.15a124.86,124.86,0,1,0-249.72,0Z"/></g><circle class="cls-4" cx="35.87" cy="122.61" r="26.51" transform="translate(-85.77 83.57) rotate(-55.9)"/><path class="cls-5" d="M19.08,116.61a19.16,19.16,0,0,0,1.86-1.89,8,8,0,0,0,1.13-1.89,5.15,5.15,0,0,0,.36-1.91A3.9,3.9,0,0,0,21.18,108a4.88,4.88,0,0,0-3.45-1.18,5.32,5.32,0,0,0-3.33,1,4.64,4.64,0,0,0-1.59,3.37l2.83.28a2.74,2.74,0,0,1,.61-1.78,1.88,1.88,0,0,1,1.41-.54,1.87,1.87,0,0,1,1.41.52,2,2,0,0,1,.51,1.45,3.17,3.17,0,0,1-.58,1.74,20.45,20.45,0,0,1-2.36,2.43,19.1,19.1,0,0,0-3.19,3.38,6.41,6.41,0,0,0-1,2.67H22v-2.85H16.79c.15,0,.35-.24.58-.51S18.18,117.43,19.08,116.61Z"/><path class="cls-5" d="M32.43,106.17H30.28l-2.52,3.34L23,116.21v2.28h6.64v2.85h2.84v-2.85h1.9v-2.84h-1.9Zm-2.84,9.48H26.51l1.54-2.26,1.54-2.26Z"/><path class="cls-5" d="M42.71,110.5a2.2,2.2,0,0,0-.37-.77,1.73,1.73,0,0,0-.74-.56,3.51,3.51,0,0,0-1.28-.23,3.75,3.75,0,0,0-2.2,1v-3.75h-1.9v8.53h1.9v-2.35a2.31,2.31,0,0,1,.24-1.24,2.12,2.12,0,0,1,.71-.63,1.55,1.55,0,0,1,.81-.21,1.18,1.18,0,0,1,.65.16c.45.31.44,1.06.44,1.74v2.53h1.89v-2.91A5.73,5.73,0,0,0,42.71,110.5Z"/><path class="cls-6" d="M18.1,139.13a20,20,0,0,0-3.1,1.79,9.53,9.53,0,0,0-2.94,3.15,4.81,4.81,0,0,0,0,4.72,7.08,7.08,0,0,0,1.69,2,31.13,31.13,0,0,0,10.09,5.69,37,37,0,0,0,12,2,35.84,35.84,0,1,0-34.8-27.15,35.37,35.37,0,0,0,3.15,8.16,2,2,0,1,0,3.58-1.9,31.65,31.65,0,0,1-3.73-15,31.8,31.8,0,1,1,31.8,31.8,32.75,32.75,0,0,1-10.73-1.74,26.66,26.66,0,0,1-8.77-4.93,2.91,2.91,0,0,1-.75-.86.94.94,0,0,1,0-.93,5.74,5.74,0,0,1,1.72-1.74,15.37,15.37,0,0,1,2-1.17Z"/><path class="cls-7" d="M19.33,143a7.25,7.25,0,0,0,.55,1.08c.95,1.54,1.24,2.67,6.79,3.18,5.89.54,16.65-5.83,23.17-12.73s9.35-13.27,10.66-17.64-.69-9.67-2.38-10.36-5.21-1.77-6.83-2.22c-2-.55-3.83,2.45-5.29,6.14s-.84,7.13.08,7.44a4.34,4.34,0,0,1,2.8,1.95c.72,1.41-3,8.32-5.31,10.39s-7.69,5.22-9.61,5.14-2.07-1.38-2.68-2.68-4.38-1.38-8.36.38-5.6,3.53-5.06,5.22c.07.25.16.52.24.8Z"/><path class="cls-6" d="M244,118.05a3.05,3.05,0,0,0-2.14-2.63l-4.43-1.12a3.94,3.94,0,0,1-2.57-2.59l-1.46-4.58a3.87,3.87,0,0,1,.6-3.58l3-3.51a3,3,0,0,0,.22-3.38l-2.19-3a3.06,3.06,0,0,0-3.29-.87l-4.26,1.7a3.76,3.76,0,0,1-3.53-.62L220,91a3.79,3.79,0,0,1-1.65-3.18l.34-4.6a3.09,3.09,0,0,0-1.84-2.86l-3.55-1.17a3.07,3.07,0,0,0-3.17,1.22l-.79,1.26-1,1.53-.68,1.08a4,4,0,0,1-3.25,1.65l-4.82,0a3.9,3.9,0,0,1-3.23-1.68L194,80.31a3,3,0,0,0-3.15-1.26l-3.58,1.13A3,3,0,0,0,185.41,83l.3,4.58A3.84,3.84,0,0,1,184,90.82l-3.92,2.84a3.86,3.86,0,0,1-3.57.54l-4.24-1.73a3.12,3.12,0,0,0-3.33.81s-.37.42-1.14,1.49-1.09,1.55-1.09,1.55a3.13,3.13,0,0,0,.22,3.4l2.93,3.53a4,4,0,0,1,.57,3.59l-1.54,4.6a3.93,3.93,0,0,1-2.57,2.54l-4.44,1.1a3,3,0,0,0-2.16,2.6l0,3.78a3,3,0,0,0,2.14,2.62l4.43,1.13a3.92,3.92,0,0,1,2.57,2.58l1.46,4.59a3.92,3.92,0,0,1-.57,3.58l-3,3.52a3,3,0,0,0-.2,3.37l2.16,3.05a3.06,3.06,0,0,0,3.29.87l4.26-1.71a3.75,3.75,0,0,1,3.53.63l3.92,2.89a3.7,3.7,0,0,1,1.65,3.17l-.34,4.58a3.07,3.07,0,0,0,1.24,2.5l31.1-.15a3,3,0,0,0,.93-2.21l-.3-4.57a3.84,3.84,0,0,1,1.68-3.21l3.91-2.84a3.88,3.88,0,0,1,3.59-.54l4.24,1.72a3.1,3.1,0,0,0,3.31-.8s.37-.42,1.16-1.49a18.44,18.44,0,0,0,1.07-1.56,3.13,3.13,0,0,0-.21-3.41l-2.92-3.51a3.92,3.92,0,0,1-.57-3.59l1.52-4.59a4,4,0,0,1,2.58-2.55l4.45-1.1A3,3,0,0,0,244,121.8Zm-43.29,21c-26.24-2-23.05-42.73,3.14-40.71S226.91,141.09,200.72,139.06Z"/><path class="cls-6" d="M129.26,87A12.24,12.24,0,0,0,117,74.81h0A12.23,12.23,0,0,0,104.8,87v1.63A12.23,12.23,0,0,0,117,100.9h0a12.24,12.24,0,0,0,12.23-12.23Z"/><path class="cls-6" d="M136.51,130.78v-16.1c0-7.9-5.57-13-13.47-13H110.39c-7.9,0-12,5.14-12,13v16.1Z"/><path class="cls-8" d="M102.27,66.16l-21-21A62.4,62.4,0,0,0,65.37,61.62l21.09,21.1A35.16,35.16,0,0,1,102.27,66.16Z"/><path class="cls-8" d="M147.26,81.27,168.43,60.1a62.58,62.58,0,0,0-16.33-16L131,65.2A33.88,33.88,0,0,1,147.26,81.27Z"/><path class="cls-8" d="M147.3,111.18a35.62,35.62,0,0,1-17,15.39l21.33,21.33A62.44,62.44,0,0,0,168.12,132Z"/><path class="cls-8" d="M87.05,109.1,65.64,130.52a62.43,62.43,0,0,0,16,16.33l21-21A34.07,34.07,0,0,1,87.05,109.1Z"/><path class="cls-4" d="M117.45,62.3A32.4,32.4,0,0,1,131,65.2L152.1,44.06a62.17,62.17,0,0,0-70.84,1.09l21,21A32.86,32.86,0,0,1,117.45,62.3Z"/><path class="cls-4" d="M168.43,60.1,147.26,81.27A36.89,36.89,0,0,1,151,95.81a29.41,29.41,0,0,1-3.66,15.37L168.12,132a62.07,62.07,0,0,0,.31-71.91Z"/><path class="cls-4" d="M83.93,95.81a29.14,29.14,0,0,1,2.53-13.09L65.37,61.62a62.24,62.24,0,0,0,.27,68.9L87.05,109.1A36.81,36.81,0,0,1,83.93,95.81Z"/><path class="cls-4" d="M130.31,126.57a32.22,32.22,0,0,1-27.61-.74l-21,21a62.11,62.11,0,0,0,70,1.05Z"/><polygon class="cls-7" points="61.19 43.55 51.56 43.55 51.56 11.01 98.05 11.01 98.05 43.55 77.91 43.55 77.91 54.7 61.19 43.55"/><polygon class="cls-9" points="138.61 158.19 138.61 125.65 160.31 125.65 160.31 113.12 175.14 125.65 186.65 125.65 186.65 158.19 138.61 158.19"/><path class="cls-10" d="M34.27,31.9a5.71,5.71,0,0,0-5.75,5.68c0,5.41,5.76,11.13,5.76,11.13S40,42.9,40,37.58A5.83,5.83,0,0,0,34.27,31.9ZM35.7,40a2.75,2.75,0,0,1-1.42.39,2.63,2.63,0,0,1-1.83-.71c-1.62-1.5-1-5,1.84-5C37.38,34.74,37.84,38.79,35.7,40Z"/><path class="cls-11" d="M35.28,65.13c-1.23,0-2.22-1.59-2.21-3.55s1-3.54,2.24-3.54,2.22,1.6,2.21,3.56S36.51,65.14,35.28,65.13Z"/><path class="cls-11" d="M46.09,66.8c-1.43-.82-3-2.88-2.41-4.69,1.41-4.24-1.89-5.75-3.53-6.07a5,5,0,0,0-4,.83c-1.48,1.19-1,3.23-.21,4.87a1.8,1.8,0,0,0-.81,2.45c1.12,1.8.15,4.22-.52,5.66-1.07,2.31.43,5.18,3,6.49a10.45,10.45,0,0,0,8.62,0,6.23,6.23,0,0,0,3.07-2.56C50.62,71.34,48.78,68.35,46.09,66.8Z"/><path class="cls-12" d="M28.14,83a17.27,17.27,0,0,1-2,.16.91.91,0,1,1-.05-1.81c3.18-.09,5.57-1,7.08-2.79a9.18,9.18,0,0,0,1.86-6.47.91.91,0,1,1,1.81-.23,11,11,0,0,1-2.29,7.88A10.08,10.08,0,0,1,28.14,83Z"/><path class="cls-13" d="M35.76,70.42a1.6,1.6,0,0,0-1.35,1.76,8.55,8.55,0,0,1-1.71,5.95,7.39,7.39,0,0,1-4.43,2.34,3.51,3.51,0,0,1,.21,3.15,10.57,10.57,0,0,0,6.61-3.44,11.74,11.74,0,0,0,2.45-8.39A1.59,1.59,0,0,0,35.76,70.42Z"/><path class="cls-14" d="M36,72a1,1,0,0,1-.28-1.59,3.11,3.11,0,0,1,2.3-1h.23a2.54,2.54,0,0,1,2,.89C39.89,71.43,37.27,72.45,36,72Z"/><path class="cls-14" d="M37.55,67.53l0,1,0,1.92,1.48,0,0-2.46,0-1A2.38,2.38,0,0,1,37.55,67.53Z"/><g class="cls-15"><path class="cls-12" d="M37.55,67.78l0,1A2.57,2.57,0,0,0,39,68.1v-.76A2.45,2.45,0,0,1,37.55,67.78Z"/></g><path class="cls-14" d="M37.91,68.31h0A4.29,4.29,0,0,0,42.16,64V62.28A4.28,4.28,0,0,0,37.81,58h0a4.2,4.2,0,0,0-2.08.56,4.29,4.29,0,0,0-2.17,3.77l0,1.69a4.28,4.28,0,0,0,2.1,3.64A4.34,4.34,0,0,0,37.91,68.31Z"/><path class="cls-16" d="M34.65,82.27a4.07,4.07,0,1,0,4.88-3.07A4.07,4.07,0,0,0,34.65,82.27Z"/><path class="cls-17" d="M37.63,66.07a1.14,1.14,0,0,1-2.25,0Z"/><path class="cls-13" d="M33.85,72.65c-.28.77.5,1.54,1.31,1.63A1.48,1.48,0,0,0,36.79,73c.09-.81-1.12-2.59-1.58-1.91S34.09,72,33.85,72.65Z"/><path class="cls-13" d="M40.28,70.24a2.51,2.51,0,0,1,.6,1.51s-.37,6.69,1.47,9.77l-7.8.66.21-9.26a3.36,3.36,0,0,1,1-2.54C35.76,71.87,38.83,70.08,40.28,70.24Z"/><path class="cls-18" d="M35,100.11a1.36,1.36,0,0,0-1.13.9,33,33,0,0,1-.89,3.93c-.46,1.22-.92,1.46-1.24,2.45s.5,1.13,1.27.83c.3-.12,2.2-.62,2.23-2.14a8.57,8.57,0,0,1,.25-2.9c.35-1,.65-.42.77-.13s.33.8.41,1a.14.14,0,0,0,.18.07h0a.14.14,0,0,0,.08-.19,6.85,6.85,0,0,1-.38-1.92A1.84,1.84,0,0,0,35,100.11Z"/><path class="cls-14" d="M34.27,105.34a10.47,10.47,0,0,0,.63-4.21c-.27-.71-1.75-.76-1.84-.13-.15,1.1.3,3-.6,5C32.57,106.58,33.81,106.37,34.27,105.34Z"/><path class="cls-16" d="M39.89,86.92,30.3,91.38l.91-2.17,3.55,11.52a1.33,1.33,0,0,1-2.5.88L27.89,90.36a1.69,1.69,0,0,1,.84-2.13l.07,0,9.54-4.57a1.82,1.82,0,1,1,1.57,3.28Z"/><path class="cls-18" d="M28.58,96.49a1.37,1.37,0,0,0-1.43.26,30.15,30.15,0,0,1-2.62,3.07c-1,.86-1.49.86-2.24,1.58s-.08,1.23.74,1.33c.32,0,2.23.48,3-.85a8.39,8.39,0,0,1,1.57-2.45c.76-.68.78-.07.74.24s-.08.87-.09,1.07a.14.14,0,0,0,.12.15h0a.13.13,0,0,0,.15-.13,6.94,6.94,0,0,1,.56-1.88A1.84,1.84,0,0,0,28.58,96.49Z"/><path class="cls-14" d="M25.47,100.76A10.48,10.48,0,0,0,28,97.33c.09-.75-1.19-1.49-1.57-1-.64.9-1.13,2.79-2.88,4.18C23.39,101.06,24.58,101.46,25.47,100.76Z"/><path class="cls-16" d="M39.22,87.21l-10.57-.54,1.82-1.49L28.23,97a1.31,1.31,0,0,1-1.54,1,1.32,1.32,0,0,1-1.07-1.45l1.37-12a1.69,1.69,0,0,1,1.74-1.5h.08l10.57.41a1.82,1.82,0,1,1-.14,3.63Z"/><path class="cls-14" d="M40,83.17c-.47.08-1,.13-1.49.17a.92.92,0,0,1-1-.85.91.91,0,0,1,.85-1c1.68-.11,3.8-.53,4.35-1.88.85-2.14-2.1-6-3.2-7.22a.9.9,0,0,1,0-1.28.91.91,0,0,1,1.29,0c.51.56,5,5.55,3.54,9.13C43.8,81.82,42.32,82.78,40,83.17Z"/><path class="cls-13" d="M41.34,70.75a1.56,1.56,0,0,0-1.41-.49,1.61,1.61,0,0,0-.93.52,1.64,1.64,0,0,0,.07,2.15c1.26,1.37,3.69,4.83,3,6.47a1.58,1.58,0,0,1-.65.71,1.56,1.56,0,0,0-.75,1.63v0A1.54,1.54,0,0,0,43,82.86,4.56,4.56,0,0,0,45,80.57C46.57,76.7,42.23,71.71,41.34,70.75Z"/><path class="cls-14" d="M34.62,82.3a2.16,2.16,0,0,0,.63,1.36l3.32-.27a2.18,2.18,0,1,0-4-1.09Z"/><path class="cls-12" d="M23.32,82.71a2.18,2.18,0,0,0,.57,1.39L27.22,84a2.21,2.21,0,0,0,.46-1.43,2.18,2.18,0,1,0-4.36.18Z"/><path class="cls-11" d="M42.88,61.43c-.48,1.37-2.64,1.86-4.83,1.09S34.49,60,35,58.65s2.64-1.86,4.83-1.09S43.36,60.06,42.88,61.43Z"/><path class="cls-16" d="M40.58,83.55A.55.55,0,0,0,40,83H20.26c-.41,0-.75.25-.75.55s.34.55.75.55H40a.55.55,0,0,0,.54-.55Z"/><path class="cls-4" d="M41.36,83.55a.57.57,0,0,1-.59.55H33.26a.55.55,0,1,1,0-1.1h7.51A.57.57,0,0,1,41.36,83.55Z"/><rect class="cls-4" x="19.54" y="71.96" width="14.77" height="11.58" rx="0.8"/><rect class="cls-18" x="18.92" y="71.96" width="14.77" height="11.58" rx="0.8"/><path class="cls-4" d="M28.48,77.76h0a.85.85,0,0,0-.85-.85H25a.85.85,0,0,0-.85.85h0a.85.85,0,0,0,.85.84h2.64A.85.85,0,0,0,28.48,77.76Z"/><path class="cls-11" d="M122.23,4.25A4.26,4.26,0,1,1,118,0,4.25,4.25,0,0,1,122.23,4.25Z"/><polygon class="cls-14" points="119.53 8.78 119.52 12.83 119.51 15.47 116.42 15.46 116.57 9 116.61 7.16 119.53 8.78"/><path class="cls-19" d="M129,20.65l-6.64-8.07a1.49,1.49,0,0,0-1.79-.39,6.41,6.41,0,0,0-5-.14l-.36.21a1.47,1.47,0,0,0-1.88.33l-6.67,8.09a1.47,1.47,0,0,0,0,1.81l5.1,7a1.47,1.47,0,1,0,2.38-1.74l-4.43-6.06,3.63-4.4C113.21,20.79,113,26,113,26h9.81l-1.25,1.7a1.47,1.47,0,0,0,.32,2.06,1.42,1.42,0,0,0,.87.29,1.49,1.49,0,0,0,1.19-.6l5.12-7A1.47,1.47,0,0,0,129,20.65Zm-6,5.09-.09-7.85L126,21.64Z"/><path class="cls-20" d="M118.12,18c.74-2.26,1.55-3.84,2.27-5.85a6.24,6.24,0,0,0-4.84,0c.73,2,1.54,3.59,2.27,5.85a3.49,3.49,0,0,0,.15.43h0A2.54,2.54,0,0,0,118.12,18Z"/><polygon class="cls-21" points="118.24 12.27 117.97 12.27 117.71 12.27 117.21 15.33 117.56 17.19 117.97 18.39 118.39 17.19 118.74 15.33 118.24 12.27"/><path class="cls-14" d="M118.78,1h-1.61a2.48,2.48,0,0,0-2.58,2.58,28.1,28.1,0,0,1,0,3.33c0,1.28,1.5,3.77,2.78,3.77h1.21c1.28,0,2.78-2.49,2.78-3.77a28.1,28.1,0,0,1,0-3.33A2.48,2.48,0,0,0,118.78,1Z"/><path class="cls-17" d="M116.67,8.5A1.32,1.32,0,0,0,118,9.59a1.34,1.34,0,0,0,1.31-1.09Z"/><path class="cls-16" d="M119.58,35h-3.21a3.66,3.66,0,0,1-3.6-4.38L113,26h10l.19,4.64A3.66,3.66,0,0,1,119.58,35Z"/><rect class="cls-21" x="110.86" y="22.74" width="14.68" height="9.09" rx="1"/><rect class="cls-22" x="110.86" y="23.16" width="14.68" height="9.09" rx="1"/><rect class="cls-21" x="115.99" y="26.95" width="4.43" height="1.51" rx="0.75"/><path class="cls-23" d="M118.37,12.45a.89.89,0,0,1-.84,0,2.3,2.3,0,0,1-.18-.79l1.25,0A2,2,0,0,1,118.37,12.45Z"/><polygon class="cls-4" points="116.65 13.24 115.6 11.97 116.48 10.84 117.97 11.65 116.65 13.24"/><polygon class="cls-4" points="119.3 13.24 120.35 11.97 119.47 10.84 117.97 11.65 119.3 13.24"/><path class="cls-13" d="M119.72,46l.87-3.23h-.07a.31.31,0,0,1-.29-.38.3.3,0,0,1,.32-.24h.2l.1-.37h-.1a.32.32,0,0,1,0-.63H121l.55-2a.34.34,0,0,1,.09-.12,2.4,2.4,0,0,1,.11-.23,1.88,1.88,0,0,1,2.56-.62,1.86,1.86,0,0,1,.62,2.56v0h0l-3.68,6A.72.72,0,0,1,121,47,.89.89,0,0,1,119.72,46Z"/><g id="_8._Right_shoe" data-name="8. Right shoe"><path class="cls-5" d="M121.94,41.26a1.86,1.86,0,1,0-.62-2.56A1.86,1.86,0,0,0,121.94,41.26Z"/><path class="cls-18" d="M120.81,46.69l3.67-6a1.35,1.35,0,0,0-.45-1.86h0c-.63-.39-2.53-.4-2.92.23l-1.83,6.88a.89.89,0,0,0,1.29,1A.69.69,0,0,0,120.81,46.69Z"/><path class="cls-4" d="M121.35,41.48h0a.31.31,0,0,0-.3-.38l-.72,0a.31.31,0,0,0-.32.24h0a.33.33,0,0,0,.3.39l.72,0A.31.31,0,0,0,121.35,41.48Z"/><path class="cls-4" d="M121.12,42.47h0a.32.32,0,0,0-.3-.39l-.72,0a.31.31,0,0,0-.31.25h0a.3.3,0,0,0,.29.38l.72,0A.32.32,0,0,0,121.12,42.47Z"/></g><path class="cls-16" d="M113,29.76l11.16,8-3.51,3-10-7.67a2,2,0,0,1-.47-2.84l0,0A2,2,0,0,1,113,29.76Z"/><path class="cls-13" d="M119,51.23l.22-3.34.06,0a.32.32,0,0,0,.4-.27.3.3,0,0,0-.22-.33l-.2-.06,0-.38.09,0a.31.31,0,0,0,.4-.27.3.3,0,0,0-.22-.33l-.23-.07.14-2.1a.78.78,0,0,0,0-.14,2.17,2.17,0,0,0,0-.25,1.86,1.86,0,1,0-3.63.82v0h0l1.54,6.88a.85.85,0,0,0,.15.3A.89.89,0,0,0,119,51.23Z"/><g id="_8._Right_shoe-2" data-name="8. Right shoe"><path class="cls-13" d="M118.4,46a1.86,1.86,0,1,1-.82-3.63A1.86,1.86,0,1,1,118.4,46Z"/><path class="cls-18" d="M117.73,51.52l-1.55-6.89a1.35,1.35,0,0,1,1-1.61h0c.73-.16,2.53.43,2.7,1.15l-.48,7.11a.88.88,0,0,1-1.54.54A.61.61,0,0,1,117.73,51.52Z"/><path class="cls-4" d="M118.89,46.41h0a.31.31,0,0,1,.4-.27l.7.2a.34.34,0,0,1,.22.34h0a.31.31,0,0,1-.4.26l-.7-.2A.32.32,0,0,1,118.89,46.41Z"/><path class="cls-4" d="M118.79,47.41h0a.32.32,0,0,1,.4-.27l.69.21a.31.31,0,0,1,.23.33h0a.31.31,0,0,1-.4.27l-.7-.2A.34.34,0,0,1,118.79,47.41Z"/></g><path class="cls-16" d="M121.09,31.53,115.8,44.2l4.25.51,4.84-11.6a2,2,0,0,0-1.1-2.66l0,0A2,2,0,0,0,121.09,31.53Z"/><path class="cls-11" d="M117.78,2.77A2.87,2.87,0,0,1,122.09,4a4.2,4.2,0,0,0-8.24-.25C115.21,4.14,116.43,3.53,117.78,2.77Z"/><path class="cls-7" d="M217,70.23c0,.07.09.15.09.22v11.1A1.56,1.56,0,0,1,215.49,83h-6.81a1.49,1.49,0,0,1-1.5-1.48V70.45a1.62,1.62,0,0,1,0-.22,10.94,10.94,0,0,0-6.69,10c0,4.39,3.06,8.81,6.7,11v54.65a4.72,4.72,0,0,0,4.76,4.94h0a5,5,0,0,0,5.1-4.94V91.22a12.47,12.47,0,0,0,6.65-11A11,11,0,0,0,217,70.23Zm-5,77.7a2,2,0,1,1,2-2A1.95,1.95,0,0,1,212,147.93Z"/><path class="cls-18" d="M188.61,148.25v3.33a4.57,4.57,0,0,0,4.56,4.57h0a4.58,4.58,0,0,0,4.57-4.57v-3.33Z"/><path class="cls-18" d="M188.61,148.25v3.33a4.57,4.57,0,0,0,4.56,4.57h0a4.58,4.58,0,0,0,4.57-4.57v-3.33Z"/><path class="cls-5" d="M196.27,111.54h0v-6.08h-6.2v6.08h0a1.46,1.46,0,0,0-1.46,1.46v35.25h9.13V113A1.46,1.46,0,0,0,196.27,111.54Z"/><path class="cls-22" d="M193.18,68h0a4.44,4.44,0,0,0-4.43,4.43v7A2.3,2.3,0,0,0,191,81.68h0v19.65h4.27V81.68h.05a2.24,2.24,0,0,0,2.23-2.23V72.39A4.42,4.42,0,0,0,193.18,68Z"/><path class="cls-22" d="M195.84,105.46h-5.33a2.29,2.29,0,0,1-2.29-2.29h0a2.29,2.29,0,0,1,2.29-2.28h5.33a2.28,2.28,0,0,1,2.28,2.28h0A2.28,2.28,0,0,1,195.84,105.46Z"/><path class="cls-6" d="M217.1,132.58c-3.59,4.3-9.1,7-16.38,6.48a19,19,0,0,1-13.33-6.34v26.1l30-.14a3,3,0,0,0,.93-2.21l-.3-4.57a3.84,3.84,0,0,1,1.68-3.21l1.11-.81v-15.3Z"/><path class="cls-4" d="M103.3,85.27a2.39,2.39,0,1,1-2.39-2.39A2.39,2.39,0,0,1,103.3,85.27Z"/><path class="cls-5" d="M100.91,88.6a3.34,3.34,0,1,1,3.33-3.33A3.34,3.34,0,0,1,100.91,88.6Zm0-4.77a1.44,1.44,0,1,0,1.44,1.44A1.45,1.45,0,0,0,100.91,83.83Z"/><path class="cls-5" d="M133.83,87a1,1,0,0,1-1-1,15.82,15.82,0,0,0-16-15.6A16,16,0,0,0,101.2,83.1a1,1,0,0,1-1.13.74,1,1,0,0,1-.73-1.13,18,18,0,0,1,17.54-14.13,17.72,17.72,0,0,1,17.9,17.5A.94.94,0,0,1,133.83,87Z"/><path class="cls-5" d="M113.89,97.43H104.4a4.17,4.17,0,0,1-4.17-4.17V88a.95.95,0,1,1,1.89,0v5.25a2.28,2.28,0,0,0,2.28,2.28h9.49a.95.95,0,1,1,0,1.89Z"/><path class="cls-5" d="M119.59,99.55h-3.51a3.14,3.14,0,0,1,0-6.27h3.51a3.14,3.14,0,0,1,0,6.27Zm-3.51-4.37a1.24,1.24,0,0,0,0,2.48h3.51a1.24,1.24,0,1,0,0-2.48Z"/><path class="cls-4" d="M135.59,85.27a2.39,2.39,0,1,1-2.39-2.39A2.39,2.39,0,0,1,135.59,85.27Z"/><path class="cls-5" d="M133.2,88.6a3.34,3.34,0,1,1,3.33-3.33A3.34,3.34,0,0,1,133.2,88.6Zm0-4.77a1.44,1.44,0,1,0,1.44,1.44A1.44,1.44,0,0,0,133.2,83.83Z"/><path class="cls-4" d="M181.21,149.84H163.76a1.42,1.42,0,1,1,0-2.84h17.45a1.42,1.42,0,1,1,0,2.84Z"/><path class="cls-4" d="M157,149.84H144.06a1.42,1.42,0,0,1,0-2.84H157a1.42,1.42,0,1,1,0,2.84Z"/><path class="cls-4" d="M181.21,143.65H144.06a1.42,1.42,0,1,1,0-2.84h37.15a1.42,1.42,0,1,1,0,2.84Z"/><path class="cls-4" d="M181.21,138H144.06a1.43,1.43,0,0,1,0-2.85h37.15a1.43,1.43,0,0,1,0,2.85Z"/><path class="cls-4" d="M91,33.8H76.09a1.22,1.22,0,0,1,0-2.44H91a1.22,1.22,0,0,1,0,2.44Z"/><path class="cls-4" d="M70.3,33.8H59.22a1.22,1.22,0,0,1,0-2.44H70.3a1.22,1.22,0,0,1,0,2.44Z"/><path class="cls-4" d="M91,28.5H59.22a1.22,1.22,0,0,1,0-2.44H91a1.22,1.22,0,0,1,0,2.44Z"/><path class="cls-4" d="M91,23.68H59.22a1.22,1.22,0,1,1,0-2.44H91a1.22,1.22,0,0,1,0,2.44Z"/><path class="cls-14" d="M156.19,130.83c-.17-.45-4.17-11.14-4.17-17.69h2.38c0,6.12,4,16.75,4,16.86Z"/><path class="cls-14" d="M145.31,123.86l-4-6.67a1.21,1.21,0,0,1-.13-.93,1.18,1.18,0,0,1,.6-.73l5.73-4.82,1.93,2.41L144,117.05l3.34,5.59Z"/><path class="cls-16" d="M157.3,89.12a32.21,32.21,0,0,0-2.28-2.5,1.63,1.63,0,0,0-2.37.12c-6.46-1-7.67,8.23-4.73,10.53a3.82,3.82,0,0,0,4.37.58,8.38,8.38,0,0,0,3.41,1.32,5.35,5.35,0,0,0,2.81-.64,2.24,2.24,0,0,0,3.19-.62C163.08,96,161,94,160,94a1.65,1.65,0,0,0-.48-2.6A14.42,14.42,0,0,1,157.3,89.12Z"/><path class="cls-14" d="M149.31,100.58A.93.93,0,0,1,149,99.1a3,3,0,0,1,2.15-1h.22a2.31,2.31,0,0,1,1.88.83C152.93,100.08,150.48,101,149.31,100.58Z"/><path class="cls-14" d="M150.61,96.44l0,1,0,1.8,1.38,0,0-2.3,0-.89A2.31,2.31,0,0,1,150.61,96.44Z"/><g class="cls-15"><path class="cls-12" d="M150.61,96.44l0,1a2.41,2.41,0,0,0,1.4-.65V96A2.31,2.31,0,0,1,150.61,96.44Z"/></g><path class="cls-14" d="M149.84,96.44h0a4,4,0,0,0,3.58,0,4,4,0,0,0,1.8-1.79l.71-1.41a4,4,0,0,0-1.78-5.38h0a4,4,0,0,0-5.38,1.78l-.71,1.41a4,4,0,0,0,1.78,5.38Z"/><path class="cls-16" d="M154.27,92.29c-2.88.47-3.19-2.63-3-3.91.34-2.67,3.83-2.15,5-.83a6.89,6.89,0,0,1,1.52,5.82c-.58,2.77-3.41,4.49-3.41,4.49-3.1-2.28.1-4.46.1-4.46Z"/><path class="cls-13" d="M148,110.2a3.8,3.8,0,1,0,4.55-2.86A3.8,3.8,0,0,0,148,110.2Z"/><path class="cls-17" d="M150.16,94.26a1.07,1.07,0,0,1-1.88-1Z"/><path class="cls-13" d="M145.23,112.13a38.64,38.64,0,0,0,11.26,6.5s1.06-6.38-1.29-9.14c-1.18-1.39-7.26.63-7.26.63Z"/><path class="cls-13" d="M147.29,101.22c-.26.72.46,1.44,1.22,1.52a1.37,1.37,0,0,0,1.52-1.22c.08-.76-1.05-2.42-1.47-1.79S147.51,100.61,147.29,101.22Z"/><path class="cls-13" d="M153.29,99a2.27,2.27,0,0,1,.56,1.41s-.34,6.25,1.37,9.13c.74,1.24-7.3,1.2-7.3,1.2l.21-9.24A3.16,3.16,0,0,1,149,99.1C149.07,100.49,151.94,98.82,153.29,99Z"/><path class="cls-13" d="M152.08,101.24c-1.43,0-11.06-.45-16.42-12.32l2.17-1c5,11.07,13.95,10.94,14.33,10.93l.08,2.37Z"/><path class="cls-14" d="M137.77,86a2,2,0,0,0-1.38-.28l-1.63,2.65a2,2,0,0,0,.86,1.1A2,2,0,0,0,137.77,86Z"/><path class="cls-16" d="M145.73,124.06a1.55,1.55,0,1,0,1.54-1.55A1.55,1.55,0,0,0,145.73,124.06Z"/><path class="cls-16" d="M141.38,125.61h5.87a1.13,1.13,0,0,0,1.12-1.13h0c0-.62-.81-2-1.43-2l-5.67,1.68a.74.74,0,0,0-.16,1.35A.54.54,0,0,0,141.38,125.61Z"/><path class="cls-16" d="M156.16,131.86a1.55,1.55,0,1,0,.75-2.06A1.55,1.55,0,0,0,156.16,131.86Z"/><path class="cls-16" d="M152.89,135.11l5.31-2.49a1.13,1.13,0,0,0,.54-1.49h0c-.26-.57-1.57-1.45-2.13-1.19l-4.43,3.93a.74.74,0,0,0,.44,1.29A.65.65,0,0,0,152.89,135.11Z"/><path class="cls-24" d="M150.46,110a9.14,9.14,0,0,1-2-.21l.07-.33a9,9,0,0,0,5.8-.71l.16.3A8.87,8.87,0,0,1,150.46,110Z"/></g></g></g></svg>
